<?xml version="1.0"?>
<svg xmlns="http://www.w3.org/2000/svg" xmlns:xlink="http://www.w3.org/1999/xlink" viewBox="0 0 512 512" width="512" height="512"><linearGradient id="a" gradientUnits="userSpaceOnUse" x1="255.988" x2="255.988" y1="15.117" y2="495.177"><stop offset="0" stop-color="#00efd1"/><stop offset="1" stop-color="#00acea"/></linearGradient><linearGradient id="b" x1="295.53" x2="295.53" xlink:href="#a" y1="15.117" y2="495.177"/><path d="m282.934 100.146a41.6 41.6 0 0 0 -30.319-12.091l-131.024 3.351a30.7 30.7 0 0 0 -12.936 3.107l-39.828-39.828a10 10 0 0 0 -14.142 14.143l39.827 39.826a30.525 30.525 0 0 0 -3.106 12.868l-3.351 131.1a41.6 41.6 0 0 0 12.091 30.308l165.189 165.19a41.545 41.545 0 0 0 58.608 0l124.18-124.18.015-.015a41.541 41.541 0 0 0 -.015-58.593zm151.046 209.654-124.164 124.166a21.508 21.508 0 0 1 -30.338.015l-165.19-165.189a21.5 21.5 0 0 1 -6.239-15.666l3.263-127.671 37.3 37.3a45.466 45.466 0 1 0 14.142-14.142l-37.3-37.3 127.66-3.264c.174-.005.347-.007.52-.007a21.508 21.508 0 0 1 15.157 6.247l165.189 165.189a21.507 21.507 0 0 1 0 30.322zm-272.4-122.818a25.379 25.379 0 1 1 25.405 25.353 25.433 25.433 0 0 1 -25.407-25.352z" fill="url(#a)"/><path d="m309.382 192.637a10 10 0 0 0 -14.141 0l-102.6 102.6a10 10 0 0 0 0 14.14l88.983 88.862a9.834 9.834 0 0 0 7.068 2.761 9.842 9.842 0 0 0 7.072-2.754l102.656-102.567a9.921 9.921 0 0 0 0-14.079zm-20.682 184.568-74.845-74.891 88.463-88.463 74.882 74.849z" fill="url(#b)"/></svg>
